<svg width="1500" height="1486" xmlns="http://www.w3.org/2000/svg" viewBox="0 0 1500 1486"><title>hcs-logo-dark</title><g fill-rule="evenodd"><path d="M1500 1486H0V0h1500v1486zM79.87 1405.93h1340.26V80.07H79.87v1325.87-.01z"/><path d="M361.26 483.85h-55.84v100.9H224.5V303.57h80.88v98.59h55.84v-98.59h80.88v147l-80.88 126.44v-93.16zm275.97-180.28h102.06c70.48 0 108.22 45.83 108.22 99.36 0 36.59-15.4 69.32-47 87l53.53 94.74h-90.51l-45.83-92.43v92.43h-80.49v-281.1h.02zm80.49 73.17v55.84h17.72c15.4 0 29.65-9.24 29.65-28.11 0-18.1-14.25-27.73-29.65-27.73h-17.72z"/><path d="M852.22 303.57h91.66c80.11 0 144 60.85 144 140.57 0 80.11-62.78 140.57-144 140.57h-91.66V303.57zm80.11 75.49v130.17h11.55c37.74 0 62-29.65 62-65.09 0-35.44-25.42-65.09-62-65.09h-11.55v.01zm-333.9 222.25h82.42l83.57 131.33V601.31h80.08v281.15h-76.26L678.5 741.12v141.34h-80.11V601.31zm253.61 0h91.66c80.11 0 144 60.85 144 140.57 0 80.11-62.78 140.57-144 140.57h-91.66V601.31zm80.11 75.49v130.17h11.55c37.74 0 62-29.65 62-65.09 0-35.44-25.42-65.09-62-65.09h-11.55v.01z"/><path d="M1123.95 753.06l-85.89-151.74h86.27l40.05 72.79 39.67-72.79h85.5l-84.73 151v130.17h-80.88v-129.4zm-768.14 332.4h83.57v3.85c0 13.09 8.47 23.11 21.57 23.11 11.94 0 18.49-8.09 18.49-15.41 0-13.48-20-18.49-43.9-27-33.89-11.94-77-32.74-77-87.81 0-50.84 37-87.42 97.82-87.42 63.93 0 98.59 32.74 99.36 93.59h-79.34v-3.08c0-13.09-6.93-20.8-20-20.8-11.94 0-17.72 6.55-17.72 14.63 0 10 19.26 16.95 42.36 25 35.43 12.32 81.26 32.35 81.26 90.12 0 46.6-32.74 90.12-100.9 90.12-67.06.08-105.57-32.65-105.57-98.9zm347.8-6.16h-55.84v100.9h-80.88V899.06h80.88v98.59h55.84v-98.59h80.89v281.15h-80.88v-100.9zm88.38-180.24h166.76v73.95H872.1v28.84h86.65v74H872.1v30.81h86.65v73.56H791.99zm174.27 0h80.88v203.73h68.31v77.41H966.26zm157.58 0h80.88v203.73h81.65v77.41h-162.53zM222.45 741.85c0-79.71 60.46-144.4 143.63-144.4 43.13 0 79.71 15.79 105 41.47l-47.36 73.31c-11.34-21.87-30.91-35.45-56.49-35.45-37.35 0-61.23 29.65-61.23 65.08s23.1 65.08 60.84 65.08a56.947 56.947 0 0 0 8.09-.39L504.7 601.31h86.25v281.1h-79.71v-27.34H435l-12.7 20.78a155.399 155.399 0 0 1-56.22 10.4c-83.18.03-143.63-64.27-143.63-144.4zm288.8 41.59v-52.37l-32.35 52.37h32.35zm32.33-479.77h86.24v281h-79.69v-27.33H473.9l-16.55 27.33h-91.63l177.86-281zm6.54 182.1v-52.36l-32.34 52.36h32.34z"/></g></svg>