<svg id="snapchat-icon" data-name="Layer 1" xmlns="http://www.w3.org/2000/svg" viewBox="0 0 84.59 80.32">
    <title>snapchat-icon</title>
    <path class="cls-1" d="M81.89,65.27c-1.93.84-4.06,1.18-6,1.93-1,.36-2.36,1.08-2.48,1.81-.61,3.66-2.87,3.93-5.86,3.5A17.74,17.74,0,0,0,54,76.1c-7.81,5.73-15.72,5.57-23.47-.15a17.14,17.14,0,0,0-14.82-3.13c-2,.48-3.55.26-3.71-2-.21-3-2.14-3.66-4.49-4.07a3.82,3.82,0,0,1-1.23-.29C4.15,65.26,2.08,64,0,62.77c1.81-1.11,3.56-2.38,5.46-3.31A26.18,26.18,0,0,0,17.93,46.66c1.51-3.23.66-5.4-2.8-6.58a15.8,15.8,0,0,1-4.57-2.15c-.94-.73-1.34-2.17-2-3.29,1.27-.72,2.52-2,3.82-2,2-.1,4.1.61,6.62,1.06,0-3.79.09-6.87,0-9.94C18.65,13.21,24,4.91,33.37,1.6,44-2.16,55.9.82,61.52,9.37c2.06,3.14,3.12,7.21,3.69,11,.62,4.12.14,8.41.14,13.23,2.26-.42,4.16-1.15,6-1,1.61.14,3.14,1.26,4.7,1.94a44.84,44.84,0,0,1-2.54,3.84c-.4.49-1.23.65-1.88.93-6.54,2.82-7,4.29-3.22,10.3A24.86,24.86,0,0,0,81.64,60.35c1.13.39,2,1.63,3,2.48C83.7,63.67,82.94,64.81,81.89,65.27Z"/>
</svg>
